<?xml version="1.0" encoding="UTF-8" standalone="no"?>
<svg
   xmlns:dc="http://purl.org/dc/elements/1.1/"
   xmlns:cc="http://creativecommons.org/ns#"
   xmlns:rdf="http://www.w3.org/1999/02/22-rdf-syntax-ns#"
   xmlns:svg="http://www.w3.org/2000/svg"
   xmlns="http://www.w3.org/2000/svg"
   xmlns:sodipodi="http://sodipodi.sourceforge.net/DTD/sodipodi-0.dtd"
   xmlns:inkscape="http://www.inkscape.org/namespaces/inkscape"
   viewBox="0 0 37 27"
   version="1.1"
   id="svg14"
   sodipodi:docname="logo.svg"
   inkscape:version="0.91 r13725"
   width="37"
   height="27"
   inkscape:export-filename="C:\Users\lbenychou\Documents\workspace\sncf-le-panneau\logo.png"
   inkscape:export-xdpi="1720.4574"
   inkscape:export-ydpi="1720.4574">
  <defs
     id="defs4565">
    <linearGradient
       y2="77.072304"
       x2="293.66281"
       y1="77.072304"
       x1="0"
       gradientUnits="userSpaceOnUse"
       id="SVGID_1_"
       gradientTransform="matrix(0.10137975,0,0,0.10137975,3.8715406,3.7242048)">
      <stop
         id="stop4546"
         style="stop-color:#FFFFFF"
         offset="0" />
      <stop
         id="stop4548"
         style="stop-color:#FFFFFF"
         offset="0" />
      <stop
         id="stop4550"
         style="stop-color:#FFFFFF"
         offset="0.8294" />
      <stop
         id="stop4552"
         style="stop-color:#FFFFFF"
         offset="1" />
    </linearGradient>
  </defs>
  <metadata
     id="metadata18">
    <rdf:RDF>
      <cc:Work
         rdf:about="">
        <dc:format>image/svg+xml</dc:format>
        <dc:type
           rdf:resource="http://purl.org/dc/dcmitype/StillImage" />
        <dc:title>code-terminal</dc:title>
      </cc:Work>
    </rdf:RDF>
  </metadata>
  <sodipodi:namedview
     pagecolor="#000000"
     bordercolor="#666666"
     borderopacity="1"
     objecttolerance="10"
     gridtolerance="10"
     guidetolerance="10"
     inkscape:pageopacity="0"
     inkscape:pageshadow="2"
     inkscape:window-width="1360"
     inkscape:window-height="706"
     id="namedview16"
     showgrid="false"
     inkscape:zoom="5.6568543"
     inkscape:cx="39.257877"
     inkscape:cy="-8.1101326"
     inkscape:window-x="-8"
     inkscape:window-y="-8"
     inkscape:window-maximized="1"
     inkscape:current-layer="svg14" />
  <title
     id="title6">code-terminal</title>
  <path
     class="cls-1"
     d="M 36.740212,13.595484 V 1.3375961 c 0,-0.64187938 -0.858626,-1.13536974 -1.917795,-1.13536974 H 2.128565 c -1.0591695,0 -1.91779645,0.4934904 -1.91779645,1.13536974 V 13.595484 Z"
     id="path8-3"
     inkscape:connector-curvature="0"
     style="fill:#ffffff;fill-opacity:1;stroke-width:0.78992242"
     sodipodi:nodetypes="csssscc" />
  <path
     class="cls-1"
     d="M 36.469372,11.280197 V 1.3399714 c 0,-0.52165904 -0.846182,-0.94454704 -1.89,-0.94454704 H 2.3593746 c -1.0438181,0 -1.89000004,0.422888 -1.89000004,0.94454704 v 9.9402256 z"
     id="path8"
     inkscape:connector-curvature="0"
     style="fill:#0d5da6;fill-opacity:1;stroke-width:0.70693707"
     sodipodi:nodetypes="csssscc" />
  <path
     class="cls-1"
     d="m 36.741285,13.592543 v 11.76731 c 0,0.64188 -0.858626,1.625948 -1.917795,1.625948 H 2.1296375 c -1.05917,0 -1.917796,-0.984068 -1.917796,-1.625948 v -11.76731 z"
     id="path8-3-6"
     inkscape:connector-curvature="0"
     style="fill:#ffffff;fill-opacity:1;stroke-width:0.78992242"
     sodipodi:nodetypes="csssscc" />
  <rect
     style="opacity:1;fill:#04396d;fill-opacity:1;stroke:none;stroke-width:12.00647545;stroke-linecap:round;stroke-linejoin:bevel;stroke-miterlimit:4;stroke-dasharray:none;stroke-opacity:1"
     id="rect913"
     width="36"
     height="10.866946"
     x="0.46937454"
     y="11.268479" />
  <path
     d="m 18.568716,11.282886 m -7.688835,10.394106 c 0.04254,-0.06932 0.783064,-1.172232 1.644907,-2.448453 0.863418,-1.27622 1.574005,-2.393306 1.581883,-2.479963 0.0079,-0.09926 -0.143378,-0.211127 -0.404924,-0.29936 -0.605023,-0.204825 -1.20532,-0.765732 -1.533041,-1.432203 l -0.28518,-0.581389 0,-5.7934116 c 0,-5.665789 0.0047,-5.80444 0.212704,-6.251905 0.308814,-0.664896 0.688529,-1.066669 1.284098,-1.364454 l 0.526244,-0.261546 4.567609,0 c 3.207883,0 4.687354,0.03624 4.966231,0.119744 0.505762,0.151256 1.243134,0.797244 1.534616,1.34082 0.223733,0.419104 0.223733,0.425406 0.223733,6.417341 0,5.9919346 0,5.9982366 -0.223733,6.4173416 -0.289907,0.541999 -1.022552,1.183261 -1.54722,1.356575 -0.261547,0.08666 -0.412802,0.198523 -0.412802,0.305663 0,0.09296 0.732645,1.249434 1.625999,2.569771 0.89493,1.320336 1.626,2.42797 1.626,2.462633 0,0.03309 -0.395471,0.04884 -0.879175,0.03151 l -0.879174,-0.02994 -1.181685,-1.728412 -1.181686,-1.728412 -3.403255,-0.02836 c -1.87179,-0.01576 -3.496214,-0.0063 -3.609656,0.02206 -0.127622,0.03151 -0.653866,0.713738 -1.372331,1.780407 l -1.16593,1.729988 -0.89493,0.0016 c -0.690104,0.0016 -0.877598,-0.02836 -0.819302,-0.126046 m 4.400598,-8.96663 c 0.157558,-0.08193 0.412802,-0.297785 0.565633,-0.477401 0.245791,-0.291482 0.272576,-0.39232 0.231611,-0.883901 -0.03939,-0.478977 -0.09611,-0.601872 -0.409651,-0.888628 -0.683802,-0.6255056 -1.566128,-0.5136386 -2.089221,0.264698 -0.735796,1.093453 0.543576,2.585528 1.703203,1.985232 m 7.703015,-0.02048 c 0.705861,-0.334023 0.975285,-1.115511 0.631808,-1.826098 -0.408075,-0.844512 -1.418022,-1.0761216 -2.11758,-0.486855 -0.776762,0.653866 -0.590843,1.934814 0.337174,2.338163 0.422256,0.184343 0.721616,0.17804 1.148598,-0.02521 m -0.07563,-4.7866146 c 0.193796,-0.09769 0.456918,-0.332448 0.58454,-0.523093 0.212704,-0.318267 0.230035,-0.458494 0.230035,-1.780406 0,-1.703203 -0.103988,-2.005715 -0.820878,-2.375977 -0.44904,-0.23161 -0.455343,-0.23161 -4.482527,-0.203249 -3.891685,0.02836 -4.042941,0.03624 -4.313941,0.237912 -0.63811,0.477401 -0.696407,0.64914 -0.729494,2.160122 -0.02836,1.285674 -0.01261,1.424325 0.20325,1.840278 0.431709,0.830332 0.374988,0.820878 4.958353,0.820878 3.620685,0 4.050819,-0.01733 4.370662,-0.178041"
     style="fill:#ffffff;fill-opacity:0.88235294"
     id="path4150"
     inkscape:connector-curvature="0" />
  <path
     class="cls-2"
     d="M 2.3593746,26.875424 H 34.579372 c 1.043818,0 1.89,-0.846182 1.89,-1.89 v -2.85 H 0.46937456 v 2.85 c 0,1.043818 0.84618194,1.89 1.89000004,1.89 z m 31.2699974,-3.32 c 0.846418,0 1.270153,1.023282 0.671717,1.621717 -0.598435,0.598436 -1.621717,0.174701 -1.621717,-0.671717 0,-0.524671 0.425329,-0.95 0.95,-0.95 z m -3.32,0 c 0.846418,0 1.270153,1.023282 0.671717,1.621717 -0.598435,0.598436 -1.621717,0.174701 -1.621717,-0.671717 0,-0.524671 0.425329,-0.95 0.95,-0.95 z"
     id="path10"
     inkscape:connector-curvature="0"
     style="opacity:1;fill:#8e9999;fill-opacity:1"
     sodipodi:nodetypes="sssccssssssssss" />
</svg>
