<?xml version="1.0" encoding="UTF-8" standalone="no"?>
<svg
   xmlns:dc="http://purl.org/dc/elements/1.1/"
   xmlns:cc="http://creativecommons.org/ns#"
   xmlns:rdf="http://www.w3.org/1999/02/22-rdf-syntax-ns#"
   xmlns:svg="http://www.w3.org/2000/svg"
   xmlns="http://www.w3.org/2000/svg"
   xmlns:sodipodi="http://sodipodi.sourceforge.net/DTD/sodipodi-0.dtd"
   xmlns:inkscape="http://www.inkscape.org/namespaces/inkscape"
   viewBox="0 0 37 27"
   version="1.1"
   id="svg14"
   sodipodi:docname="logo.svg"
   inkscape:version="0.92.2 5c3e80d, 2017-08-06"
   width="37"
   height="27"
   inkscape:export-filename="/home/lionel/Documents/workspace/sncf-le-panneau/logo.png"
   inkscape:export-xdpi="1834.3021"
   inkscape:export-ydpi="1834.3021">
  <defs
     id="defs4565">
    <linearGradient
       y2="77.072304"
       x2="293.66281"
       y1="77.072304"
       x1="0"
       gradientUnits="userSpaceOnUse"
       id="SVGID_1_"
       gradientTransform="matrix(0.10137975,0,0,0.10137975,3.8715406,3.7242048)">
      <stop
         id="stop4546"
         style="stop-color:#FFFFFF"
         offset="0" />
      <stop
         id="stop4548"
         style="stop-color:#FFFFFF"
         offset="0" />
      <stop
         id="stop4550"
         style="stop-color:#FFFFFF"
         offset="0.8294" />
      <stop
         id="stop4552"
         style="stop-color:#FFFFFF"
         offset="1" />
    </linearGradient>
  </defs>
  <metadata
     id="metadata18">
    <rdf:RDF>
      <cc:Work
         rdf:about="">
        <dc:format>image/svg+xml</dc:format>
        <dc:type
           rdf:resource="http://purl.org/dc/dcmitype/StillImage" />
        <dc:title>code-terminal</dc:title>
      </cc:Work>
    </rdf:RDF>
  </metadata>
  <sodipodi:namedview
     pagecolor="#000000"
     bordercolor="#666666"
     borderopacity="1"
     objecttolerance="10"
     gridtolerance="10"
     guidetolerance="10"
     inkscape:pageopacity="0"
     inkscape:pageshadow="2"
     inkscape:window-width="1920"
     inkscape:window-height="978"
     id="namedview16"
     showgrid="false"
     inkscape:zoom="16"
     inkscape:cx="12.322198"
     inkscape:cy="9.0100138"
     inkscape:window-x="0"
     inkscape:window-y="65"
     inkscape:window-maximized="1"
     inkscape:current-layer="svg14" />
  <title
     id="title6">code-terminal</title>
  <path
     class="cls-1"
     d="M 36.740212,13.595484 V 1.3375961 c 0,-0.64187938 -0.858626,-1.13536974 -1.917795,-1.13536974 H 2.128565 c -1.0591695,0 -1.91779645,0.4934904 -1.91779645,1.13536974 V 13.595484 Z"
     id="path8-3"
     inkscape:connector-curvature="0"
     style="fill:#ffffff;fill-opacity:1;stroke-width:0.78992242"
     sodipodi:nodetypes="csssscc" />
  <path
     class="cls-1"
     d="M 36.469372,11.280197 V 1.3399714 c 0,-0.52165904 -0.846182,-0.94454704 -1.89,-0.94454704 H 2.3593746 c -1.0438181,0 -1.89000004,0.422888 -1.89000004,0.94454704 v 9.9402256 z"
     id="path8"
     inkscape:connector-curvature="0"
     style="fill:#0d5da6;fill-opacity:1;stroke-width:0.70693707"
     sodipodi:nodetypes="csssscc" />
  <path
     class="cls-1"
     d="m 36.741285,13.592543 v 11.76731 c 0,0.64188 -0.858626,1.625948 -1.917795,1.625948 H 2.1296375 c -1.05917,0 -1.917796,-0.984068 -1.917796,-1.625948 v -11.76731 z"
     id="path8-3-6"
     inkscape:connector-curvature="0"
     style="fill:#ffffff;fill-opacity:1;stroke-width:0.78992242"
     sodipodi:nodetypes="csssscc" />
  <rect
     style="opacity:1;fill:#04396d;fill-opacity:1;stroke:none;stroke-width:12.00647545;stroke-linecap:round;stroke-linejoin:bevel;stroke-miterlimit:4;stroke-dasharray:none;stroke-opacity:1"
     id="rect913"
     width="36"
     height="10.866946"
     x="0.46937454"
     y="11.268479" />
  <path
     class="cls-2"
     d="M 2.3593746,26.875424 H 34.579372 c 1.043818,0 1.89,-0.846182 1.89,-1.89 v -2.85 H 0.46937456 v 2.85 c 0,1.043818 0.84618194,1.89 1.89000004,1.89 z m 31.2699974,-3.32 c 0.846418,0 1.270153,1.023282 0.671717,1.621717 -0.598435,0.598436 -1.621717,0.174701 -1.621717,-0.671717 0,-0.524671 0.425329,-0.95 0.95,-0.95 z m -3.32,0 c 0.846418,0 1.270153,1.023282 0.671717,1.621717 -0.598435,0.598436 -1.621717,0.174701 -1.621717,-0.671717 0,-0.524671 0.425329,-0.95 0.95,-0.95 z"
     id="path10"
     inkscape:connector-curvature="0"
     style="opacity:1;fill:#8e9999;fill-opacity:1"
     sodipodi:nodetypes="sssccssssssssss" />
  <path
     id="path4555"
     d="M 4.4189912,3.7615125 C 4.0869726,3.7753002 3.8715406,3.9282822 3.8715406,4.256043 v 14.609733 c 0,0.255173 0.1827877,0.485508 0.4638124,0.485508 h 26.080648 c 0.234491,0 0.421334,-0.02159 0.531128,-0.331309 0,0 2.643781,-8.271574 2.690517,-8.42121 0.09773,-0.313365 0.03417,-0.47101 -0.232869,-0.6415309 C 24.909965,4.5153724 12.208705,3.7243062 6.4396924,3.7242048 c -0.8274615,0 -1.5111665,0.016221 -2.0207012,0.037308 z"
     style="fill:url(#SVGID_1_);stroke-width:0.10137975"
     inkscape:connector-curvature="0" />
  <path
     id="path4557"
     d="M 9.8005328,13.10984 C 8.8433049,12.647548 8.1905207,12.406467 8.3476593,11.941438 c 0.1860319,-0.550897 1.1487339,-0.75974 2.0209017,-0.739565 0.441002,0.01024 0.754671,0.0665 1.113758,0.149535 l 0.317115,-0.996968 c -0.455803,-0.08384 -0.781435,-0.126421 -1.325033,-0.139093 -1.7488993,-0.04055 -3.3298152,0.441812 -3.7359424,1.463011 -0.481858,1.211488 0.8846396,1.893368 2.0687551,2.454403 0.9398921,0.445159 1.6825973,0.868926 1.4213423,1.424791 C 10.025697,15.988214 9.3603416,16.19148 8.3930774,16.169481 7.5557821,16.150121 6.5105569,15.91005 5.6874547,15.495204 l -0.4897656,1.058911 c 0.6052371,0.281025 1.8537287,0.663024 2.9196354,0.687659 2.0004245,0.04633 3.2961575,-0.457121 3.8150185,-1.547156 0.613449,-1.288841 -0.908869,-1.994343 -2.1318102,-2.584778 z"
     inkscape:connector-curvature="0"
     style="fill:#464d4d;fill-opacity:1;stroke-width:0.10137975" />
  <path
     id="path4559"
     d="m 12.514162,14.929099 c 0.0085,0.02504 0.02666,0.03072 0.05343,0.03072 0.02697,0 0.04004,-0.0073 0.04755,-0.03072 0.01065,-0.03305 0.974361,-3.020812 0.974361,-3.020812 0.982268,1.406036 1.95744,3.255304 2.480053,5.208283 h 1.601495 l 0.792283,-2.473868 c 0.0081,-0.02534 0.02595,-0.03092 0.05211,-0.03092 0.02758,0 0.04532,0.0079 0.04887,0.03072 0.241183,1.553543 1.78621,2.597349 3.975607,2.597349 1.415769,0 2.695586,-0.37105 3.013919,-0.541469 l 0.829489,-2.614178 h 3.187075 l 0.32472,-1.011872 h -3.187583 l 0.548972,-1.71646 h 3.798598 l 0.3307,-1.049483 h -5.335109 l -1.810034,5.660437 c -0.384838,0.09702 -0.859599,0.145074 -1.355751,0.145074 -1.068847,0 -1.924188,-0.25426 -2.408986,-0.820669 -0.364359,-0.425592 -0.509231,-0.974158 -0.419205,-1.585681 0.214722,-1.458854 1.635154,-2.380396 3.534402,-2.380396 0.39974,0 0.811038,0.02494 1.181986,0.07228 l 0.374992,-1.100476 c -0.457527,-0.07015 -1.011973,-0.100265 -1.555774,-0.100265 -1.684627,0 -3.149361,0.57979 -4.098884,1.602307 -0.0293,0.03163 -0.06032,0.03072 -0.07837,0.03072 -0.0295,0 -0.04927,-0.0057 -0.04126,-0.03072 l 0.47598,-1.49231 h -1.390931 l -1.522115,4.774175 c -0.483987,-1.408773 -1.48055,-3.261691 -2.69883,-4.774175 h -1.493426 l -1.115785,3.475298 c 0.561441,0.416873 0.738653,0.718579 0.885451,1.147111 z"
     inkscape:connector-curvature="0"
     style="fill:#464e4e;fill-opacity:1;stroke-width:0.10137975" />
</svg>
