<?xml version="1.0" encoding="UTF-8" standalone="no"?>
<!-- Created with Inkscape (http://www.inkscape.org/) -->

<svg
   xmlns:dc="http://purl.org/dc/elements/1.1/"
   xmlns:cc="http://creativecommons.org/ns#"
   xmlns:rdf="http://www.w3.org/1999/02/22-rdf-syntax-ns#"
   xmlns:svg="http://www.w3.org/2000/svg"
   xmlns="http://www.w3.org/2000/svg"
   xmlns:sodipodi="http://sodipodi.sourceforge.net/DTD/sodipodi-0.dtd"
   xmlns:inkscape="http://www.inkscape.org/namespaces/inkscape"
   width="136mm"
   height="136mm"
   viewBox="0 0 136 136"
   version="1.1"
   id="svg4617"
   inkscape:version="0.92.1 r15371"
   sodipodi:docname="intercites.svg"
   inkscape:export-filename="D:\Photos\soundtransform\trains\src\images\intercites.png"
   inkscape:export-xdpi="95.623528"
   inkscape:export-ydpi="95.623528">
  <defs
     id="defs4611" />
  <sodipodi:namedview
     id="base"
     pagecolor="#000000"
     bordercolor="#666666"
     borderopacity="1.0"
     inkscape:pageopacity="0"
     inkscape:pageshadow="2"
     inkscape:zoom="0.49497474"
     inkscape:cx="-161.55529"
     inkscape:cy="249.04703"
     inkscape:document-units="mm"
     inkscape:current-layer="layer1"
     showgrid="false"
     inkscape:window-width="1366"
     inkscape:window-height="706"
     inkscape:window-x="-8"
     inkscape:window-y="-8"
     inkscape:window-maximized="1" />
  <metadata
     id="metadata4614">
    <rdf:RDF>
      <cc:Work
         rdf:about="">
        <dc:format>image/svg+xml</dc:format>
        <dc:type
           rdf:resource="http://purl.org/dc/dcmitype/StillImage" />
        <dc:title />
      </cc:Work>
    </rdf:RDF>
  </metadata>
  <g
     inkscape:label="Layer 1"
     inkscape:groupmode="layer"
     id="layer1"
     transform="translate(0,-161)">
    <path
       style="font-style:normal;font-variant:normal;font-weight:300;font-stretch:normal;font-size:medium;line-height:125%;font-family:'Avenir LT Std 55 Roman';-inkscape-font-specification:'Avenir LT Std 55 Roman';letter-spacing:0px;word-spacing:0px;fill:#ffffff;fill-opacity:1;stroke:#ffffff;stroke-width:0.36630461;stroke-opacity:1"
       inkscape:connector-curvature="0"
       id="path3829-4"
       d="M 7.9972698,224.73138 H 10.8945 V 209.31715 H 7.9972698 Z"
       inkscape:export-xdpi="95.623528"
       inkscape:export-ydpi="95.623528" />
    <path
       style="font-style:normal;font-variant:normal;font-weight:300;font-stretch:normal;font-size:medium;line-height:125%;font-family:'Avenir LT Std 55 Roman';-inkscape-font-specification:'Avenir LT Std 55 Roman';letter-spacing:0px;word-spacing:0px;fill:#ffffff;fill-opacity:1;stroke:#ffffff;stroke-width:0.36630461;stroke-opacity:1"
       inkscape:connector-curvature="0"
       id="path3831-7"
       d="m 14.443546,224.73138 h 2.897233 v -11.82193 h 0.04599 l 8.04786,11.82193 h 3.679023 v -15.41423 h -2.89723 v 11.45182 h -0.04599 l -7.886904,-11.45182 h -3.839982 z"
       inkscape:export-xdpi="95.623528"
       inkscape:export-ydpi="95.623528" />
    <path
       style="font-style:normal;font-variant:normal;font-weight:300;font-stretch:normal;font-size:medium;line-height:125%;font-family:'Avenir LT Std 55 Roman';-inkscape-font-specification:'Avenir LT Std 55 Roman';letter-spacing:0px;word-spacing:0px;fill:#ffffff;fill-opacity:1;stroke:#ffffff;stroke-width:0.36630461;stroke-opacity:1"
       inkscape:connector-curvature="0"
       id="path3833-6"
       d="m 36.101155,224.73138 h 2.89723 V 211.7991 h 4.989674 v -2.48195 H 31.111481 v 2.48195 h 4.989674 z"
       inkscape:export-xdpi="95.623528"
       inkscape:export-ydpi="95.623528" />
    <path
       style="font-style:normal;font-variant:normal;font-weight:300;font-stretch:normal;font-size:medium;line-height:125%;font-family:'Avenir LT Std 55 Roman';-inkscape-font-specification:'Avenir LT Std 55 Roman';letter-spacing:0px;word-spacing:0px;fill:#ffffff;fill-opacity:1;stroke:#ffffff;stroke-width:0.36630461;stroke-opacity:1"
       inkscape:connector-curvature="0"
       id="path3835-9"
       d="m 45.970733,224.73138 h 11.198029 v -2.48195 h -8.300797 v -4.18013 h 7.473016 v -2.48195 h -7.473016 v -3.78825 h 7.886906 v -2.48195 H 45.970733 Z"
       inkscape:export-xdpi="95.623528"
       inkscape:export-ydpi="95.623528" />
    <path
       style="font-style:normal;font-variant:normal;font-weight:300;font-stretch:normal;font-size:medium;line-height:125%;font-family:'Avenir LT Std 55 Roman';-inkscape-font-specification:'Avenir LT Std 55 Roman';letter-spacing:0px;word-spacing:0px;fill:#ffffff;fill-opacity:1;stroke:#ffffff;stroke-width:0.36630461;stroke-opacity:1"
       inkscape:connector-curvature="0"
       id="path3837-0"
       d="m 60.027733,224.73138 h 2.89723 v -6.53145 h 2.115436 l 3.771,6.53145 h 3.495072 l -4.322855,-6.81448 c 1.213398,-0.17825 2.143689,-0.63817 2.790883,-1.37977 0.647171,-0.74158 0.973876,-1.67504 0.980117,-2.80037 -0.0575,-1.69861 -0.678333,-2.86792 -1.862507,-3.50793 -1.184196,-0.63998 -2.586821,-0.94387 -4.207881,-0.91168 h -5.656495 z m 2.89723,-8.88277 v -4.18014 h 2.506331 c 0.790888,-0.029 1.525733,0.0835 2.204541,0.33746 0.678788,0.25401 1.039984,0.8237 1.083587,1.70906 -0.04552,0.96522 -0.431625,1.57119 -1.158316,1.81793 -0.726713,0.24675 -1.52096,0.35198 -2.382743,0.31569 z"
       inkscape:export-xdpi="95.623528"
       inkscape:export-ydpi="95.623528" />
    <path
       style="font-style:normal;font-variant:normal;font-weight:300;font-stretch:normal;font-size:medium;line-height:125%;font-family:'Avenir LT Std 55 Roman';-inkscape-font-specification:'Avenir LT Std 55 Roman';letter-spacing:0px;word-spacing:0px;fill:#ffffff;fill-opacity:1;stroke:#ffffff;stroke-width:0.36630461;stroke-opacity:1"
       inkscape:connector-curvature="0"
       id="path3839-5"
       d="m 87.962264,211.36367 c -0.803844,-0.87311 -1.67953,-1.49995 -2.627053,-1.88051 -0.947555,-0.38054 -1.972694,-0.5665 -3.075432,-0.5579 -2.551375,0.0313 -4.611241,0.77427 -6.179609,2.22886 -1.568381,1.45462 -2.37508,3.4331 -2.420106,5.93546 0.04503,2.43977 0.851725,4.38016 2.420106,5.82116 1.568368,1.441 3.628234,2.17851 6.179609,2.21253 1.207169,0.005 2.333865,-0.21228 3.380102,-0.65315 1.046205,-0.44087 1.942968,-1.13756 2.690283,-2.09006 l -2.391362,-1.61109 c -0.543243,0.64952 -1.123842,1.12486 -1.741789,1.42603 -0.617974,0.30117 -1.256054,0.44995 -1.914242,0.44632 -1.701557,-0.0331 -3.052445,-0.57649 -4.052676,-1.63015 -1.000239,-1.05364 -1.51185,-2.4189 -1.534842,-4.09576 0.02299,-1.57253 0.534603,-2.87429 1.534845,-3.90527 1.000228,-1.03096 2.351116,-1.56527 4.052673,-1.60292 0.560946,-0.0114 1.123339,0.093 1.687176,0.31296 0.563817,0.21999 1.143453,0.62367 1.738916,1.21104 z"
       inkscape:export-xdpi="95.623528"
       inkscape:export-ydpi="95.623528" />
    <path
       style="font-style:normal;font-variant:normal;font-weight:300;font-stretch:normal;font-size:medium;line-height:125%;font-family:'Avenir LT Std 55 Roman';-inkscape-font-specification:'Avenir LT Std 55 Roman';letter-spacing:0px;word-spacing:0px;fill:#ffffff;fill-opacity:1;stroke:#ffffff;stroke-width:0.36630461;stroke-opacity:1"
       inkscape:connector-curvature="0"
       id="path3841-8"
       d="m 90.228441,224.73138 h 2.89723 v -15.41423 h -2.89723 z"
       inkscape:export-xdpi="95.623528"
       inkscape:export-ydpi="95.623528" />
    <path
       style="font-style:normal;font-variant:normal;font-weight:300;font-stretch:normal;font-size:medium;line-height:125%;font-family:'Avenir LT Std 55 Roman';-inkscape-font-specification:'Avenir LT Std 55 Roman';letter-spacing:0px;word-spacing:0px;fill:#ffffff;fill-opacity:1;stroke:#ffffff;stroke-width:0.36630461;stroke-opacity:1"
       inkscape:connector-curvature="0"
       id="path3843-8"
       d="m 100.00883,224.73138 h 2.89723 V 211.7991 h 4.98968 v -2.48195 H 95.019159 v 2.48195 h 4.989671 z"
       inkscape:export-xdpi="95.623528"
       inkscape:export-ydpi="95.623528" />
    <path
       style="font-style:normal;font-variant:normal;font-weight:300;font-stretch:normal;font-size:medium;line-height:125%;font-family:'Avenir LT Std 55 Roman';-inkscape-font-specification:'Avenir LT Std 55 Roman';letter-spacing:0px;word-spacing:0px;fill:#ffffff;fill-opacity:1;stroke:#ffffff;stroke-width:0.36630461;stroke-opacity:1"
       inkscape:connector-curvature="0"
       id="path3845-0"
       d="m 109.87842,224.73138 h 11.19802 v -2.48195 h -8.30079 v -4.18013 h 7.47301 v -2.48195 h -7.47301 v -3.78825 h 7.8869 v -2.48195 h -10.78413 z m 4.1389,-16.45926 h 2.16143 l 3.24213,-3.1351 h -3.12716 z"
       inkscape:export-xdpi="95.623528"
       inkscape:export-ydpi="95.623528" />
    <path
       style="font-style:normal;font-variant:normal;font-weight:300;font-stretch:normal;font-size:medium;line-height:125%;font-family:'Avenir LT Std 55 Roman';-inkscape-font-specification:'Avenir LT Std 55 Roman';letter-spacing:0px;word-spacing:0px;fill:#ffffff;fill-opacity:1;stroke:#ffffff;stroke-width:0.36630461;stroke-opacity:1"
       inkscape:connector-curvature="0"
       id="path3847-2"
       d="m 134.02973,210.51458 c -0.64145,-0.56151 -1.3648,-0.96791 -2.17005,-1.2192 -0.80528,-0.25127 -1.63785,-0.37464 -2.49771,-0.37012 -1.56791,-0.005 -2.94466,0.37467 -4.13028,1.13757 -1.18562,0.76292 -1.80934,1.93676 -1.87113,3.52153 0.0402,1.34384 0.44263,2.32197 1.20718,2.9344 0.76454,0.61244 1.64981,1.05853 2.6558,1.33827 1.00597,0.27974 1.89124,0.59248 2.65579,0.93821 0.76454,0.34574 1.16693,0.92382 1.20718,1.73424 -0.0355,0.70712 -0.34396,1.23599 -0.9255,1.5866 -0.58157,0.35061 -1.22348,0.52569 -1.92574,0.52524 -0.65294,-0.003 -1.26132,-0.14379 -1.82514,-0.42183 -0.56383,-0.27804 -1.0285,-0.67446 -1.39401,-1.18926 l -2.18442,2.00297 c 0.67928,0.74431 1.48215,1.28044 2.40861,1.60837 0.92646,0.32793 1.90178,0.4885 2.92597,0.4817 1.64646,0.002 3.03854,-0.40459 4.17627,-1.21921 1.13771,-0.81461 1.73076,-2.04833 1.77915,-3.70115 -0.0403,-1.34008 -0.44264,-2.32161 -1.20718,-2.9446 -0.76456,-0.62298 -1.64982,-1.07655 -2.65579,-1.36072 -1.00599,-0.28416 -1.89125,-0.58805 -2.65579,-0.91168 -0.76456,-0.32362 -1.16695,-0.85612 -1.20718,-1.59749 0.0278,-0.70167 0.30562,-1.20876 0.83352,-1.52128 0.5279,-0.3125 1.13915,-0.46581 1.83377,-0.45992 0.57292,-8e-4 1.11136,0.0989 1.61532,0.29935 0.50394,0.20049 0.91591,0.50711 1.23592,0.91985 z"
       inkscape:export-xdpi="95.623528"
       inkscape:export-ydpi="95.623528" />
  </g>
</svg>
