<?xml version="1.0" encoding="UTF-8" standalone="no"?>
<svg xmlns="http://www.w3.org/2000/svg" xml:space="preserve" version="1.1" viewBox="0 0 47.932 25.127">
    <defs>
        <linearGradient id="linearGradient1" spreadMethod="pad" gradientTransform="matrix(47.871952,0,0,47.871952,-1.2e-4,-1.468457)" gradientUnits="userSpaceOnUse" y2="0" x2="1" y1="0" x1="0"><stop offset="0" style="stop-opacity:1;stop-color:#7c2270" /><stop offset="0.247191" style="stop-opacity:1;stop-color:#aa147e" /><stop offset="0.814607" style="stop-opacity:1;stop-color:#e41d25" /><stop offset="1" style="stop-opacity:1;stop-color:#e41d25" /></linearGradient>
    </defs>
    <path d="M 0.88,0.059267 C 0.34667,0.081667 0,0.328067 0,0.855 v 0 23.492267 C 0,24.756867 0.29333,25.127 0.7456,25.127 v 0 h 41.93707 c 0.37653,0 0.67733,-0.03413 0.8544,-0.5312 v 0 c 0,0 4.25066,-13.3024 4.32533,-13.5424 v 0 c 0.15787,-0.5024 0.0555,-0.757333 -0.37333,-1.0304 v 0 C 33.8304,1.271 13.40587,-4.67e-4 4.12907,-4.67e-4 v 0 c -1.33014,0 -2.4288,0.02667 -3.24907,0.05973" style="fill:url(#linearGradient1);stroke:none;stroke-width:1.06666672" />
    <path style="fill:#ffffff;fill-opacity:1;fill-rule:nonzero;stroke:none;stroke-width:1.06666672" d="m 26.84454,19.16389 c -0.58667,-0.68373 -0.8192,-1.56587 -0.67413,-2.54933 0.3456,-2.3456 2.62826,-3.828271 5.68213,-3.828271 0.6432,0 1.3056,0.04053 1.9008,0.116267 l 0.60373,-1.7696 c -0.736,-0.113067 -1.62773,-0.161067 -2.5024,-0.161067 -2.70826,0 -5.06346,0.932267 -6.58986,2.576001 -0.048,0.0512 -0.0971,0.0501 -0.12694,0.0501 -0.0469,0 -0.0789,-0.008 -0.0661,-0.0501 l 0.7648,-2.398934 H 23.60084 L 21.1539,18.82576 c -0.77866,-2.2656 -2.3808,-5.2448 -4.34026,-7.676804 h -2.4011 l -1.7952,5.588264 c 0.9024,0.67094 1.18827,1.1552 1.424,1.84427 0.0139,0.0405 0.0427,0.0491 0.0864,0.0491 0.0437,0 0.0651,-0.0107 0.0768,-0.0491 0.0171,-0.0533 1.56587,-4.85653 1.56587,-4.85653 1.57973,2.26026 3.14773,5.23413 3.98826,8.3744 h 2.57494 l 1.2736,-3.97867 c 0.0139,-0.0405 0.0416,-0.0491 0.0843,-0.0491 0.0448,0 0.0736,0.0117 0.0789,0.0491 0.3872,2.49813 2.87146,4.17707 6.39253,4.17707 2.27627,0 4.33387,-0.59734 4.84587,-0.87147 l 1.3344,-4.20267 h 5.12426 l 0.5216,-1.62773 h -5.12533 l 0.88427,-2.759468 h 6.10666 l 0.53227,-1.687466 h -8.57813 l -2.912,9.101864 c -0.6176,0.15574 -1.38134,0.23254 -2.1792,0.23254 -1.7184,0 -3.0944,-0.40854 -3.87307,-1.31947 m -14.46187,-6.334934 0.50987,-1.6032 c -0.7328,-0.1344 -1.25653,-0.203734 -2.1312,-0.224 -2.811732,-0.06507 -5.353602,0.7104 -6.007472,2.353064 -0.7744,1.94774 1.42294,3.0432 3.32694,3.9456 1.51146,0.7168 2.706132,1.3984 2.285861,2.2912 -0.326401,0.69227 -1.396261,1.0208 -2.951461,0.9856 -1.3472,-0.032 -3.0272,-0.41813 -4.35094,-1.0848 l -0.7872,1.7024 c 0.97387,0.45227 2.98134,1.06667 4.6944,1.10614 3.21707,0.0736 5.300272,-0.736 6.134402,-2.48747 0.98667,-2.0736 -1.46133,-3.20747 -3.427202,-4.1568 -1.5392,-0.74347 -2.5888,-1.13173 -2.336,-1.87947 0.29867,-0.885331 1.8464,-1.221331 3.249071,-1.189331 0.709331,0.01707 1.213871,0.107733 1.790931,0.241067"/>
</svg>