<?xml version="1.0" encoding="UTF-8" standalone="no"?>
<!-- Created with Inkscape (http://www.inkscape.org/) -->

<svg
   xmlns:dc="http://purl.org/dc/elements/1.1/"
   xmlns:cc="http://creativecommons.org/ns#"
   xmlns:rdf="http://www.w3.org/1999/02/22-rdf-syntax-ns#"
   xmlns:svg="http://www.w3.org/2000/svg"
   xmlns="http://www.w3.org/2000/svg"
   xmlns:sodipodi="http://sodipodi.sourceforge.net/DTD/sodipodi-0.dtd"
   xmlns:inkscape="http://www.inkscape.org/namespaces/inkscape"
   width="45mm"
   height="45mm"
   viewBox="0 0 45 45"
   version="1.1"
   id="svg5077"
   inkscape:version="0.92.1 r"
   sodipodi:docname="rer.svg">
  <defs
     id="defs5071" />
  <sodipodi:namedview
     id="base"
     pagecolor="#000000"
     bordercolor="#666666"
     borderopacity="1.0"
     inkscape:pageopacity="0"
     inkscape:pageshadow="2"
     inkscape:zoom="0.3760648"
     inkscape:cx="-257.56232"
     inkscape:cy="-11.208729"
     inkscape:document-units="mm"
     inkscape:current-layer="layer1"
     showgrid="false"
     inkscape:window-width="1920"
     inkscape:window-height="978"
     inkscape:window-x="0"
     inkscape:window-y="65"
     inkscape:window-maximized="1" />
  <metadata
     id="metadata5074">
    <rdf:RDF>
      <cc:Work
         rdf:about="">
        <dc:format>image/svg+xml</dc:format>
        <dc:type
           rdf:resource="http://purl.org/dc/dcmitype/StillImage" />
        <dc:title></dc:title>
      </cc:Work>
    </rdf:RDF>
  </metadata>
  <g
     inkscape:label="Calque 1"
     inkscape:groupmode="layer"
     id="layer1"
     transform="translate(0,-252)">
    <circle
       style="fill:none;stroke:#ffffff;stroke-width:2.72807264;stroke-miterlimit:4;stroke-dasharray:none;stroke-opacity:1"
       cx="22.41283"
       cy="272.51184"
       r="16.351028"
       id="circle3458" />
    <path
       style="fill:#ffffff;fill-opacity:1;stroke-width:0.16351028"
       inkscape:connector-curvature="0"
       id="R1"
       d="m 14.237316,272.51185 m 3.885005,-2.53441 c 0,-2.20738 -1.635103,-3.22932 -3.230963,-3.22932 h -3.064183 c -0.572286,0 -0.900942,0.45129 -0.900942,0.94018 v 9.6046 c 0,0.57555 0.573921,0.86006 1.103695,0.86006 0.611528,0 1.103694,-0.28615 1.103694,-0.86006 v -3.71823 h 0.940184 l 1.841126,4.13027 c 0.161875,0.32539 0.448019,0.44965 0.776674,0.44965 0.654041,0 1.594225,-0.61316 1.226327,-1.35059 l -1.759371,-3.67898 c 1.062817,-0.53141 1.963759,-1.4716 1.963759,-3.14758 m -2.289144,0.24527 c 0,1.38983 -1.267205,1.71522 -2.043878,1.71522 h -0.655677 v -3.30944 h 0.776674 c 1.023574,0 1.922881,0.44964 1.922881,1.59422" />
    <path
       style="fill:#ffffff;fill-opacity:1;stroke-width:0.16351028"
       inkscape:connector-curvature="0"
       id="E"
       d="m 22.412831,272.51185 m 3.433715,4.57829 c 0,-0.49217 -0.32702,-1.02194 -0.897671,-1.02194 h -3.10833 v -2.82055 h 2.576922 c 0.570651,0 0.897672,-0.49053 0.897672,-0.94018 0,-0.4889 -0.325386,-0.94019 -0.897672,-0.94019 h -2.576922 v -2.57692 h 2.863064 c 0.570651,0 0.897672,-0.57065 0.897672,-1.0203 0,-0.49054 -0.327021,-1.02194 -0.897672,-1.02194 h -4.171146 c -0.572286,0 -0.899307,0.45129 -0.899307,0.94018 v 9.56536 c 0,0.57228 0.572286,0.85842 1.103694,0.85842 h 4.21039 c 0.572286,0 0.899306,-0.57065 0.899306,-1.02194" />
    <path
       style="fill:#ffffff;fill-opacity:1;stroke-width:0.16351028"
       inkscape:connector-curvature="0"
       id="R2"
       d="m 30.588345,272.51185 m 3.885004,-2.53441 c 0,-2.20738 -1.635103,-3.22932 -3.230964,-3.22932 h -3.064182 c -0.572286,0 -0.900942,0.45129 -0.900942,0.94018 v 9.6046 c 0,0.57555 0.573921,0.86006 1.103695,0.86006 0.611528,0 1.103694,-0.28615 1.103694,-0.86006 v -3.71823 h 0.940184 l 1.841126,4.13027 c 0.161876,0.32539 0.448018,0.44965 0.776674,0.44965 0.654042,0 1.594226,-0.61316 1.226327,-1.35059 l -1.759371,-3.67898 c 1.062818,-0.53141 1.963759,-1.4716 1.963759,-3.14758 m -2.289143,0.24527 c 0,1.38983 -1.267205,1.71522 -2.043879,1.71522 H 29.48465 v -3.30944 h 0.776674 c 1.023575,0 1.922882,0.44964 1.922882,1.59422" />
    <path
       inkscape:connector-curvature="0"
       style="fill:none;fill-rule:evenodd;stroke:#ffffff;stroke-width:2.65780187;stroke-linecap:round;stroke-linejoin:miter;stroke-opacity:0.88235294"
       d="m 2.4701679,294.27979 40.3337031,-0.0121"
       id="path6333" />
  </g>
</svg>
