<?xml version="1.0" encoding="UTF-8" standalone="no"?>
<svg xmlns="http://www.w3.org/2000/svg" version="1.1" height="45" width="45">
  <rect x="10" y="10" width="180" height="180" rx="35" style="fill:none;fill-opacity:0.88251367;stroke:#ffffff;stroke-opacity:1;opacity:0.88251367;stroke-width:15;stroke-linecap:round"/>
  <path d="m 100.21509,100.228 m -48.799999,65.96999 c 0.27,-0.44 4.97,-7.44 10.44,-15.54 5.48,-8.1 9.99,-15.18999 10.04,-15.73999 0.05,-0.63 -0.91,-1.34 -2.57,-1.9 -3.84,-1.3 -7.65,-4.86 -9.73,-9.09 l -1.81,-3.69 V 83.467997 c 0,-35.960001 0.03,-36.840001 1.35,-39.680001 1.96,-4.22 4.37,-6.77 8.15,-8.66 l 3.34,-1.66 h 28.99 c 20.359999,0 29.749999,0.23 31.519999,0.76 3.21,0.96 7.89,5.06 9.74,8.51 1.42,2.66 1.42,2.7 1.42,40.730001 0,38.030003 0,38.070003 -1.42,40.730003 -1.84,3.44 -6.49,7.51 -9.82,8.61 -1.66,0.55 -2.62,1.26 -2.62,1.94 0,0.59 4.65,7.92999 10.32,16.30999 5.68,8.38 10.32,15.41 10.32,15.63 0,0.21 -2.51,0.31 -5.58,0.2 l -5.58,-0.19 -7.5,-10.97 -7.5,-10.97 -21.6,-0.18 c -11.879999,-0.1 -22.189999,-0.04 -22.909999,0.14 -0.81,0.2 -4.15,4.53 -8.71,11.3 l -7.4,10.98 -5.68,0.01 c -4.38,0.01 -5.57,-0.18 -5.2,-0.8 m 27.93,-56.90999 c 1,-0.52 2.62,-1.89 3.59,-3.03 1.56,-1.85 1.73,-2.49 1.47,-5.61 -0.25,-3.040003 -0.61,-3.820003 -2.6,-5.640003 -4.34,-3.97 -9.94,-3.26 -13.26,1.68 -4.67,6.940003 3.45,16.410003 10.81,12.600003 m 48.889999,-0.13 c 4.48,-2.12 6.19,-7.08 4.01,-11.590003 -2.59,-5.36 -9,-6.83 -13.44,-3.09 -4.93,4.15 -3.75,12.280003 2.14,14.840003 2.68,1.17 4.58,1.13 7.29,-0.16 m -0.48,-30.380003 c 1.23,-0.62 2.9,-2.11 3.71,-3.32 1.35,-2.02 1.46,-2.91 1.46,-11.3 0,-10.81 -0.66,-12.73 -5.21,-15.080001 -2.85,-1.47 -2.89,-1.47 -28.449999,-1.29 -24.7,0.18 -25.66,0.23 -27.38,1.51 -4.05,3.030001 -4.42,4.120001 -4.63,13.710001 -0.18,8.16 -0.08,9.04 1.29,11.68 2.74,5.27 2.38,5.21 31.469999,5.21 22.98,0 25.71,-0.11 27.74,-1.13" style="fill:#ffffff;fill-opacity:0.88235294"/>
  <path style="fill:none;fill-rule:evenodd;stroke:#ffffff;stroke-width:13.354;stroke-linecap:round;stroke-linejoin:miter;stroke-opacity:0.88235294" d="M 5.8017737,240.77707 195.17849,240.71171"/>
</svg>
